<?xml version="1.0" encoding="UTF-8"?>
<svg width="114px" height="59px" viewBox="0 0 114 59" version="1.1" xmlns="http://www.w3.org/2000/svg" xmlns:xlink="http://www.w3.org/1999/xlink">
    <!-- Generator: sketchtool 63.1 (101010) - https://sketch.com -->
    <title>CD3EBF63-F9A4-40DD-B853-A5B81D04F98D</title>
    <desc>Created with sketchtool.</desc>
    <defs>
        <polygon id="path-1" points="0 0.0351818494 37.8184468 0.0351818494 37.8184468 21.5367182 0 21.5367182"></polygon>
    </defs>
    <g id="Page-1" stroke="none" stroke-width="1" fill="none" fill-rule="evenodd">
        <g id="MVP-informative-website" transform="translate(-108.000000, -70.000000)">
            <g id="Header/consumer">
                <g id="Header-consumer">
                    <g id="Header">
                        <g id="Content">
                            <g id="Top">
                                <g id="logo" transform="translate(66.000000, 31.000000)">
                                    <g id="Medpack-Icon" transform="translate(32.000000, 0.963731)">
                                        <g id="Group-20" transform="translate(10.177215, 38.931934)">
                                            <path d="M102.673175,49.7413216 C102.13039,49.7413216 101.858997,49.4392782 101.858997,48.8369028 L101.858997,47.5226291 C101.858997,46.9476344 102.13039,46.6601371 102.673175,46.6601371 L112.236365,46.6601371 C112.779149,46.6601371 113.050542,46.9476344 113.050542,47.5226291 L113.050542,48.8369028 C113.050542,49.4392782 112.779149,49.7413216 112.236365,49.7413216 L102.673175,49.7413216 Z" id="Fill-1" fill="#13B759"></path>
                                            <path d="M13.4879481,0.0219045608 C14.7304165,0.0219045608 15.706581,0.394110965 16.4155937,1.13766813 C17.1237582,1.88208093 17.4782646,2.83698288 17.4782646,4.00322961 C17.4782646,6.30834238 16.552138,7.46004311 14.7024291,7.46004311 C13.9501633,7.46004311 13.3641253,7.26324432 12.9460114,6.8687911 C12.5262013,6.47604917 12.2734671,6.04565878 12.1869608,5.57847557 C12.1004544,5.112148 11.9265937,4.68090196 11.6662266,4.28816003 C11.4058595,3.89370681 11.0157329,3.69776367 10.4958468,3.69776367 C9.71474557,3.69776367 9.13634051,4.16409123 8.76063165,5.097602 C8.38492278,6.03111278 8.1966443,7.16997881 8.1966443,8.51077751 L8.1966443,17.2606228 C8.1966443,17.7868456 8.37728987,18.246328 8.73858101,18.6399256 C9.10072025,19.0335232 9.46116329,19.3766376 9.82330253,19.6675575 C10.1845937,19.9601888 10.3652392,20.2519644 10.3652392,20.5420287 L10.3652392,20.7182919 C10.3652392,21.2145671 10.0472013,21.4618491 9.41112532,21.4618491 L1.38808734,21.4618491 C0.722327848,21.4618491 0.390720253,21.2145671 0.390720253,20.7182919 L0.390720253,20.5420287 C0.390720253,20.2519644 0.672289873,19.7993271 1.23627722,19.1858283 C1.80026456,18.5740408 2.08183418,17.9331612 2.08183418,17.2606228 L2.08183418,7.02280754 C2.08183418,6.32203273 1.74937848,5.69569919 1.08446709,5.14038435 C0.418707595,4.58763645 0.0871,4.16409123 0.0871,3.87231564 L0.0871,3.69776367 C0.0871,3.28876445 0.390720253,2.93880486 0.997112658,2.64702927 L6.20191013,0.19645653 C7.12718861,-0.240779039 7.5894038,0.0509965556 7.5894038,1.07263896 L7.5894038,4.3531892 C8.57235316,1.46538089 10.5382519,0.0219045608 13.4879481,0.0219045608" id="Fill-3" fill="#303030"></path>
                                            <path d="M30.9663823,19.9742214 C32.1511797,19.9742214 33.0688253,19.4206178 33.7201671,18.3116994 C34.3706608,17.2036367 34.6954835,15.6429367 34.6954835,13.6295996 C34.6954835,11.9670776 34.4571671,10.2540725 33.9805342,8.4880173 C33.5030532,6.72452903 32.7872557,5.19292107 31.8331418,3.89404907 C30.8790278,2.59603271 29.8231418,1.94745236 28.6671797,1.94745236 C26.0066861,1.94745236 24.6768633,4.07715751 24.6768633,8.33485651 C24.6768633,9.91010246 24.9160278,11.57348 25.3926608,13.3241336 C25.8701418,15.0730759 26.6071418,16.6200855 27.605357,17.9608842 C28.6018759,19.3033942 29.7230658,19.9742214 30.9663823,19.9742214 M30.185281,21.8994269 C26.7445342,21.8994269 23.9033949,20.8273013 21.6635595,18.6839058 C19.4220278,16.538799 18.3016861,13.9222308 18.3016861,10.8290672 C18.3016861,7.70852297 19.4008253,5.12618061 21.5982557,3.08460709 C23.794838,1.04388922 26.4409139,0.0222468195 29.5347873,0.0222468195 C32.8593443,0.0222468195 35.6351797,1.07897075 37.8614456,3.19498555 C40.0877114,5.30928905 41.2012684,7.92756858 41.2012684,11.0481128 C41.2012684,14.1703684 40.1530152,16.7578446 38.057357,18.8148198 C35.9600025,20.871795 33.3359772,21.8994269 30.185281,21.8994269" id="Fill-5" fill="#303030"></path>
                                            <path d="M52.7801405,21.8551044 C50.0619759,21.8551044 47.8357101,21.3605405 46.101343,20.3679901 C44.3669759,19.377151 43.4993684,18.1809566 43.4993684,16.7794069 C43.4993684,15.9922118 43.7376848,15.3949703 44.2143177,14.9868267 C44.6917987,14.5778275 45.3210899,14.3733279 46.101343,14.3733279 C46.9392671,14.3733279 47.6194443,14.6728043 48.1393304,15.2709015 C48.6600646,15.868143 49.0289886,16.532125 49.2461025,17.2611362 C49.4623684,17.9901473 49.8669127,18.654985 50.4597354,19.2522265 C51.0517101,19.8503237 51.8260266,20.1489445 52.7801405,20.1489445 C53.7045709,20.1489445 54.4644696,19.9016625 55.0572924,19.4053873 C55.6492671,18.9099677 55.9461025,18.1955026 55.9461025,17.2611362 C55.9461025,16.2112574 55.5339253,15.3804243 54.7095709,14.7669254 C53.8860646,14.1542822 52.8810646,13.6956555 51.6962671,13.3884783 C50.5097734,13.0830123 49.3249759,12.7330527 48.1393304,12.3385995 C46.9536848,11.9450019 45.9495329,11.2596288 45.1251785,10.2833356 C44.3016722,9.30618688 43.8894949,8.02870604 43.8894949,6.45346009 C43.8894949,4.58729419 44.7053684,3.04884105 46.3396595,1.83724504 C47.9731025,0.627360311 50.0916595,0.021562302 52.6936342,0.021562302 C55.3244443,0.021562302 57.4709886,0.540084327 59.1341152,1.57541708 C60.7963937,2.61074984 61.6275329,3.84373703 61.6275329,5.27266736 C61.6275329,5.91440254 61.3883684,6.45346009 60.9117354,6.89155131 C60.4342544,7.32878688 59.8490646,7.54783248 59.1553177,7.54783248 C58.3462291,7.54783248 57.6948873,7.24921171 57.2038367,6.65025888 C56.711938,6.05301734 56.3650646,5.39759181 56.1632165,4.68141535 C55.9605203,3.96695018 55.5992291,3.31066901 55.0784949,2.71257182 C54.5586089,2.11533028 53.8784316,1.81585386 53.0405076,1.81585386 C52.2017354,1.81585386 51.5224063,2.09992864 51.0016722,2.66893383 C50.4817861,3.23793902 50.221419,3.93186866 50.221419,4.74730016 C50.221419,5.56444296 50.4385329,6.25067178 50.8719127,6.80341968 C51.3052924,7.35873452 51.8692797,7.78227974 52.5630266,8.07319968 C53.2567734,8.36411963 54.0226089,8.63450405 54.8622291,8.88264166 C55.7001532,9.12992361 56.5457101,9.40715321 57.3989,9.71433045 C58.2512418,10.0197964 59.0255582,10.3920028 59.7193051,10.8292384 C60.4139,11.2664739 60.9770392,11.8868179 61.410419,12.6885591 C61.8446468,13.4920115 62.0609127,14.4606038 62.0609127,15.5986142 C62.0609127,17.4083074 61.2221405,18.9022669 59.5462924,20.0839153 C57.8687481,21.2655637 55.6127987,21.8551044 52.7801405,21.8551044" id="Fill-7" fill="#303030"></path>
                                            <path d="M73.9872519,1.9471101 C72.8592772,1.9471101 71.9636823,2.49472412 71.2987709,3.58824086 C70.6330114,4.68090196 70.3005557,6.07475077 70.3005557,7.7663647 C70.3005557,9.19615068 70.445581,10.450529 70.7347835,11.5286441 L76.3297076,8.68532948 C77.0811253,8.30713355 77.4568342,7.62090473 77.4568342,6.62920997 C77.4568342,5.6375152 77.1387962,4.60902762 76.5027203,3.54460287 C75.8666443,2.47932247 75.0287203,1.9471101 73.9872519,1.9471101 M82.0976443,14.8109057 C82.3580114,14.4609461 82.6760494,14.3445781 83.0517582,14.4609461 C83.426619,14.5781697 83.6004797,14.8545437 83.5724924,15.2934905 C83.426619,16.8096968 82.5598595,18.289966 80.9696696,19.7334423 C79.3794797,21.1777743 77.3118089,21.8990846 74.7675051,21.8990846 C71.7033152,21.8990846 69.1878468,20.8782979 67.2219481,18.8367244 C65.2552013,16.7960065 64.2722519,14.1109865 64.2722519,10.7859426 C64.2722519,7.66454272 65.2984544,5.09075683 67.3517076,3.06287366 C69.4041127,1.03584614 71.8763278,0.0219045608 74.7675051,0.0219045608 C77.3983152,0.0219045608 79.4227329,0.649093743 80.8399101,1.90261646 C82.2562392,3.15785047 82.9644038,4.60218245 82.9644038,6.23561239 C82.9644038,7.57726674 82.3283278,8.53986951 81.0561759,9.1234207 L71.4285304,13.5419813 C72.6141759,16.07983 74.5224038,17.3487544 77.1532139,17.3487544 C78.2515051,17.3487544 79.2420873,17.1083176 80.1241127,16.6265884 C81.006138,16.1457149 81.6642646,15.5407725 82.0976443,14.8109057" id="Fill-9" fill="#303030"></path>
                                            <g id="Group-13" transform="translate(0.000000, 26.708248)">
                                                <mask id="mask-2" fill="white">
                                                    <use xlink:href="#path-1"></use>
                                                </mask>
                                                <g id="Clip-12"></g>
                                                <path d="M36.2570924,17.2490715 C36.3139152,17.9481351 36.5895481,18.6052719 37.0805987,19.2179151 C37.5724975,19.8314139 37.8184468,20.2977415 37.8184468,20.6177534 L37.8184468,20.7940167 C37.8184468,21.2894362 37.4995608,21.5367182 36.8643329,21.5367182 L29.361181,21.5367182 C28.6954215,21.5367182 28.3638139,21.2894362 28.3638139,20.7940167 L28.3638139,20.6177534 C28.3638139,20.3268335 28.6309658,19.8733406 29.1661177,19.2615531 C29.7004215,18.6489099 29.938738,17.9926287 29.8819152,17.2927095 L29.4476873,9.28471014 C29.3314975,6.86408504 28.9710544,5.13653394 28.3638139,4.10034554 C27.7565734,3.06501278 26.8601304,2.54649076 25.6744848,2.54649076 C24.6627,2.54649076 23.8383456,2.97089162 23.2022696,3.81627076 C22.5661937,4.66250555 22.2193203,5.7560223 22.1616494,7.09767665 C22.2769911,7.68122784 22.3355101,8.38200265 22.3355101,9.1982898 L22.3355101,17.2927095 C22.3355101,17.9926287 22.5882443,18.6489099 23.0945608,19.2615531 C23.6000291,19.8733406 23.8536114,20.3268335 23.8536114,20.6177534 L23.8536114,20.7940167 C23.8536114,21.2894362 23.5347253,21.5367182 22.8994975,21.5367182 L15.3963456,21.5367182 C14.7305861,21.5367182 14.3989785,21.2894362 14.3989785,20.7940167 L14.3989785,20.6177534 C14.3989785,20.3268335 14.6593456,19.8733406 15.1792316,19.2615531 C15.6999658,18.6489099 15.9594848,17.9926287 15.9594848,17.2927095 L15.9594848,8.76019858 C15.9594848,6.77680906 15.6134595,5.24605674 14.9188646,4.1653747 C14.2251177,3.0872596 13.314257,2.54649076 12.1871304,2.54649076 C11.0303203,2.54649076 10.1194595,2.99998362 9.4545481,3.9026911 C8.78878861,4.80796553 8.45718101,5.97506791 8.45718101,7.40314259 L8.45718101,17.2927095 C8.45718101,17.9926287 8.76758608,18.6489099 9.3892443,19.2615531 C10.0109025,19.8733406 10.3221557,20.3268335 10.3221557,20.6177534 L10.3221557,20.7940167 C10.3221557,21.2894362 9.9897,21.5367182 9.32478861,21.5367182 L1.25764937,21.5367182 C0.592737975,21.5367182 0.260282278,21.2894362 0.260282278,20.7940167 L0.260282278,20.6177534 C0.260282278,20.3268335 0.570687342,19.8733406 1.19234557,19.2615531 C1.8140038,18.6489099 2.12525696,17.9926287 2.12525696,17.2927095 L2.12525696,7.09767665 C2.12525696,6.5440731 1.9513962,6.07603424 1.60452278,5.69698266 C1.25764937,5.31878673 0.903143038,4.99021832 0.5427,4.71298872 C0.180560759,4.43575912 -8.48101264e-05,4.1508287 -8.48101264e-05,3.85990876 L-8.48101264e-05,3.68450114 C-8.48101264e-05,3.36363355 0.303535443,3.05816761 0.910775949,2.76553636 L6.37509241,0.227687642 C6.86699114,-0.00504831674 7.2427,-0.0264394894 7.50306709,0.16180283 C7.76343418,0.35261209 7.89319367,0.681180502 7.89319367,1.14750807 L7.89319367,3.20277193 C9.2518519,1.10301443 11.2474342,0.0522800259 13.8782443,0.0522800259 C17.1748139,0.0522800259 19.5740924,1.36569803 21.0777759,3.99082273 C21.6553329,2.76553636 22.5305734,1.80293359 23.7018013,1.10301443 C24.872181,0.403095257 26.195219,0.0522800259 27.6700671,0.0522800259 C29.8666494,0.0522800259 31.7027886,0.789847659 33.1776367,2.26241598 C34.6524848,3.73583995 35.5048266,6.13507388 35.7363582,9.46011775 L36.2570924,17.2490715 Z" id="Fill-11" fill="#303030" mask="url(#mask-2)"></path>
                                            </g>
                                            <path d="M49.8317165,46.7131872 C50.7858304,46.7131872 51.5516658,46.3127444 52.1300709,45.5101476 C52.7084759,44.7084065 52.9679949,43.7971425 52.9103241,42.7746445 L52.7805646,41.2438921 C52.6643747,39.9912251 52.2962987,39.0286223 51.6746405,38.3560838 C51.0521342,37.6852567 50.2795139,37.3498431 49.3550835,37.3498431 C48.428957,37.3498431 47.6699063,37.6852567 47.0779316,38.3560838 C46.4851089,39.0286223 46.1891215,39.9176394 46.1891215,41.0257022 C46.1891215,42.6000925 46.5275139,43.9426025 47.2076911,45.0506652 C47.8870203,46.1604393 48.7614127,46.7131872 49.8317165,46.7131872 L49.8317165,46.7131872 Z M59.459362,43.8253789 C59.5467165,44.4970617 59.7120962,45.0361192 59.9580456,45.4451185 C60.2039949,45.853262 60.4567291,46.1082448 60.7170962,46.2100668 C60.9774633,46.3127444 61.2089949,46.4368132 61.410843,46.5822732 C61.6135392,46.7294445 61.7144633,46.9322328 61.7144633,47.1949164 C61.7144633,48.0420068 60.3269696,48.4646964 57.5511342,48.4646964 C56.2789823,48.4646964 55.3460709,48.2961339 54.7540962,47.9607204 C54.1604253,47.6253068 53.8067671,47.0058184 53.6914253,46.100544 C52.5642987,47.7938692 50.6408051,48.6383927 47.9234886,48.6383927 C45.4945266,48.6383927 43.5277797,48.0702432 42.0249443,46.9322328 C40.5212608,45.795078 39.769843,44.1616481 39.769843,42.0319429 C39.7410076,39.9313298 40.4780076,38.2978998 41.9816911,37.1316531 C43.4845266,35.9645507 45.363919,35.3809995 47.6198684,35.3809995 C49.5280962,35.3809995 51.1038684,35.8190908 52.3471848,36.6935619 L52.3039316,36.1690503 C52.013881,33.3967544 51.6101848,31.4424568 51.0894506,30.3053021 C50.5687165,29.1681474 49.6866911,28.5991422 48.4433747,28.5991422 C47.6631215,28.5991422 47.0270456,28.8909178 46.5351468,29.474469 C46.0432481,30.0580201 45.6963747,30.6988997 45.4945266,31.3996745 C45.2918304,32.0995937 44.9593747,32.7413288 44.4971595,33.32488 C44.0340962,33.9084312 43.4412734,34.1993512 42.7186911,34.1993512 C41.938438,34.1993512 41.3091468,33.9734604 40.8325139,33.5216788 C40.3550329,33.0698973 40.1167165,32.4786452 40.1167165,31.7496341 C40.1167165,30.2325721 40.9190203,29.0218317 42.5236278,28.1182686 C44.1282354,27.2138498 46.1017671,26.7612126 48.4433747,26.7612126 C51.2471975,26.7612126 53.5464,27.5629538 55.3392861,29.1681474 C57.1313241,30.7724853 58.1872101,32.9603745 58.5052481,35.7309591 L59.459362,43.8253789 Z" id="Fill-14" fill="#303030"></path>
                                            <path d="M76.3298772,26.7608704 C77.5731937,26.7608704 78.5485101,27.1330768 79.2575228,27.8766339 C79.9656873,28.6210467 80.3201937,29.5768043 80.3201937,30.7430511 C80.3201937,33.0481638 79.3940671,34.1990089 77.5443582,34.1990089 C76.7920924,34.1990089 76.2069025,34.0022101 75.7879405,33.6086125 C75.3689785,33.215015 75.1153962,32.7846246 75.0288899,32.318297 C74.9423835,31.8519695 74.7685228,31.4207234 74.5090038,31.0271258 C74.2477886,30.6326726 73.857662,30.4367295 73.3377759,30.4367295 C72.5575228,30.4367295 71.9782696,30.9039127 71.6025608,31.8365678 C71.2268519,32.7700786 71.0394215,33.9089446 71.0394215,35.2497433 L71.0394215,44.0004442 C71.0394215,44.5258114 71.219219,44.9852938 71.5813582,45.379747 C71.9426494,45.7733446 72.3030924,46.116459 72.6652316,46.407379 C73.0265228,46.6991546 73.2071684,46.9917858 73.2071684,47.2818501 L73.2071684,47.4572577 C73.2071684,47.9543886 72.8891304,48.2016705 72.2530544,48.2016705 L64.2300165,48.2016705 C63.564257,48.2016705 63.2326494,47.9543886 63.2326494,47.4572577 L63.2326494,47.2818501 C63.2326494,46.9917858 63.514219,46.5391486 64.0782063,45.9256498 C64.6421937,45.3138622 64.9237633,44.672127 64.9237633,44.0004442 L64.9237633,33.762629 C64.9237633,33.0618542 64.5913076,32.434665 63.9263962,31.8802058 C63.2606367,31.3274579 62.9290291,30.9039127 62.9290291,30.6112814 L62.9290291,30.4367295 C62.9290291,30.0285859 63.2326494,29.6786263 63.8398899,29.3859951 L69.0438392,26.936278 C69.9691177,26.4981868 70.4313329,26.790818 70.4313329,27.8116048 L70.4313329,31.0930106 C71.4142823,28.2052023 73.3810291,26.7608704 76.3298772,26.7608704" id="Fill-16" fill="#303030"></path>
                                            <path d="M103.868319,27.1987049 C104.446724,27.1987049 104.735078,27.4322965 104.735078,27.8986241 L104.735078,28.1176697 C104.735078,28.4975769 104.439091,29.0075424 103.846268,29.648422 C103.253446,30.2910128 102.812433,30.918202 102.524078,31.5299895 L94.3271797,49.5139762 C93.9506228,50.3593553 93.6334329,51.0455841 93.3730658,51.5700957 C93.1126987,52.0954629 92.7149392,52.7876812 92.1806354,53.648462 C91.6446354,54.5092428 91.1179646,55.1869152 90.5972304,55.6831904 C90.0764962,56.1794656 89.4260025,56.6167011 88.6457494,56.9957527 C87.8646481,57.3748043 87.0555595,57.5647579 86.2176354,57.5647579 C84.3662304,57.5647579 82.8413443,57.0838844 81.641281,56.1212816 C80.4420658,55.1586788 79.8416101,54.0779968 79.8416101,52.8835137 C79.8416101,52.0954629 80.0731418,51.4605729 80.535357,50.9796993 C80.9975722,50.4979701 81.6344962,50.2575333 82.4435848,50.2575333 C83.2526734,50.2575333 83.8887494,50.5270621 84.3518127,51.067831 C84.8140278,51.6060329 85.1176481,52.2109752 85.2635215,52.8835137 C85.4068506,53.5543409 85.6315975,54.1592832 85.9352177,54.6991964 C86.238838,55.238254 86.6357494,55.5086384 87.1276481,55.5086384 C88.4574709,55.5086384 89.9467367,53.4653536 91.5945975,49.3830622 L82.964319,31.5299895 C82.6454329,30.88911 82.1764329,30.25422 81.5547747,29.6278864 C80.9331165,28.9998416 80.6227114,28.4975769 80.6227114,28.1176697 L80.6227114,27.8986241 C80.6227114,27.4322965 80.9263316,27.1987049 81.5335722,27.1987049 L89.6431165,27.1987049 C90.1926861,27.1987049 90.4674709,27.4468425 90.4674709,27.942262 L90.4674709,28.1176697 C90.4674709,28.3803533 90.3368633,28.678974 90.0764962,29.0152433 C89.8169772,29.3506569 89.6431165,29.6646793 89.5566101,29.9555992 C89.4692557,30.2473748 89.5566101,30.8009784 89.8169772,31.6181212 L94.8911671,43.4748203 L99.5752304,32.2307643 C99.8635848,31.2399252 99.8635848,30.5536964 99.5752304,30.1746448 C99.2851797,29.7955932 98.8950532,29.4233868 98.4040025,29.0580256 C97.9121038,28.69352 97.6670025,28.3803533 97.6670025,28.1176697 L97.6670025,27.942262 C97.6670025,27.4468425 97.9697747,27.1987049 98.5778633,27.1987049 L103.868319,27.1987049 Z" id="Fill-18" fill="#303030"></path>
                                        </g>
                                    </g>
                                </g>
                            </g>
                        </g>
                    </g>
                </g>
            </g>
        </g>
    </g>
</svg>